<svg width="193" height="130" viewBox="0 0 193 130" fill="none" xmlns="http://www.w3.org/2000/svg">
<g filter="url(#filter0_d)">
<path d="M64.7232 10.7956H44.8444C42.1012 10.7956 39.8775 12.939 39.8775 15.5831V34.7438C39.8775 37.3878 42.1012 39.5312 44.8444 39.5312H64.7232C67.4664 39.5312 69.6902 37.3878 69.6902 34.7438V15.5831C69.6902 12.939 67.4664 10.7956 64.7232 10.7956Z" fill="#56CCF2"/>
</g>
<path d="M62.2431 24.1591H59.2211L61.5691 21.8802L60.5473 20.8815L57.1701 24.1591H55.7208V22.7524L59.0978 19.4748L58.0688 18.4831L55.7208 20.7619V17.829H54.2714V20.7619L51.9234 18.4831L50.8943 19.4748L54.2714 22.7524V24.1591H52.822L49.4449 20.8815L48.4231 21.8802L50.7711 24.1591H47.7491V25.5657H50.7711L48.4231 27.8445L49.4449 28.8433L52.822 25.5657H54.2714V26.9724L50.8943 30.2499L51.9234 31.2417L54.2714 28.9628V31.8958H55.7208V28.9628L58.0688 31.2417L59.0978 30.2499L55.7208 26.9724V25.5657H57.1701L60.5473 28.8433L61.5691 27.8445L59.2211 25.5657H62.2431V24.1591Z" fill="white"/>
<g filter="url(#filter1_d)">
<path d="M167.53 78.624H147.651C144.908 78.624 142.684 80.7677 142.684 83.4115V102.572C142.684 105.216 144.908 107.36 147.651 107.36H167.53C170.273 107.36 172.497 105.216 172.497 102.572V83.4115C172.497 80.7677 170.273 78.624 167.53 78.624Z" fill="#F2C94C"/>
</g>
<path d="M164.425 90.5808C164.425 87.0639 161.526 84.2508 157.903 84.2508C154.279 84.2508 151.381 87.0639 151.381 90.5808C151.381 92.7608 152.54 94.7308 154.279 95.8554V97.6139C154.279 98.5285 154.859 99.3023 155.728 99.5831V99.7239C155.728 100.92 156.671 101.834 157.903 101.834C159.135 101.834 160.077 100.92 160.077 99.7239V99.5831C160.946 99.3023 161.526 98.5285 161.526 97.6139V95.8554C163.265 94.7308 164.425 92.7608 164.425 90.5808ZM152.83 90.5808C152.83 87.8377 155.076 85.6577 157.903 85.6577C160.729 85.6577 162.975 87.8377 162.975 90.5808C162.975 93.0423 161.092 95.0823 158.628 95.4339V93.6754L159.859 92.48C160.149 92.1985 160.149 91.7762 159.859 91.4954C159.569 91.2139 159.135 91.2139 158.845 91.4954L157.903 92.4092L156.961 91.4954C156.671 91.2139 156.236 91.2139 155.946 91.4954C155.656 91.7762 155.656 92.1985 155.946 92.48L157.178 93.6754V95.4339C154.714 95.0823 152.83 93.0423 152.83 90.5808ZM157.903 100.428C157.468 100.428 157.178 100.146 157.178 99.7239H158.628C158.628 100.146 158.338 100.428 157.903 100.428ZM160.077 97.6139C160.077 98.0362 159.787 98.3177 159.352 98.3177H156.453C156.018 98.3177 155.728 98.0362 155.728 97.6139V96.5592C156.381 96.77 157.105 96.9108 157.903 96.9108C158.7 96.9108 159.425 96.77 160.077 96.5592V97.6139Z" fill="white"/>
<g filter="url(#filter2_d)">
<path d="M34.9105 78.624H15.0316C12.2885 78.624 10.0647 80.7677 10.0647 83.4115V102.572C10.0647 105.216 12.2885 107.36 15.0316 107.36H34.9105C37.6536 107.36 39.8774 105.216 39.8774 102.572V83.4115C39.8774 80.7677 37.6536 78.624 34.9105 78.624Z" fill="#F58A8A"/>
</g>
<path d="M29.6315 90.5808H28.9068V89.1739C28.9068 87.2331 27.2835 85.6569 25.2833 85.6569C23.2832 85.6569 21.6599 87.2331 21.6599 89.1739V90.5808H20.9352C20.1379 90.5808 19.4857 91.2138 19.4857 91.9877V99.0208C19.4857 99.7946 20.1379 100.428 20.9352 100.428H29.6315C30.4286 100.428 31.0809 99.7946 31.0809 99.0208V91.9877C31.0809 91.2138 30.4286 90.5808 29.6315 90.5808ZM25.2833 96.9108C24.4862 96.9108 23.8339 96.2777 23.8339 95.5038C23.8339 94.73 24.4862 94.0977 25.2833 94.0977C26.0805 94.0977 26.7327 94.73 26.7327 95.5038C26.7327 96.2777 26.0805 96.9108 25.2833 96.9108ZM27.5299 90.5808H23.0368V89.1739C23.0368 87.9715 24.0441 86.9939 25.2833 86.9939C26.5225 86.9939 27.5299 87.9715 27.5299 89.1739V90.5808Z" fill="white"/>
<g filter="url(#filter3_d)">
<path d="M134.918 10.7956H115.04C112.297 10.7956 110.073 12.939 110.073 15.5831V34.7438C110.073 37.3878 112.297 39.5312 115.04 39.5312H134.918C137.662 39.5312 139.885 37.3878 139.885 34.7438V15.5831C139.885 12.939 137.662 10.7956 134.918 10.7956Z" fill="#6FCF97"/>
</g>
<path d="M129.14 21.2729H117.305V28.4518H129.14V21.2729Z" fill="white"/>
<path d="M132.33 22.7014L129.718 23.767V25.9878L132.33 27.0535H133.278V22.7014H132.33Z" fill="white"/>
<g clip-path="url(#clip0)">
<path d="M132.515 79.2494C132.522 85.7082 131.128 92.0969 128.422 98.0061C125.718 103.915 121.762 109.215 116.808 113.565C115.43 114.775 113.982 115.91 112.47 116.962C110.529 118.312 108.486 119.518 106.358 120.574H106.335C105.882 120.803 105.421 121.022 104.956 121.233C104.744 121.333 104.536 121.427 104.32 121.52C102.974 122.115 101.594 122.648 100.179 123.122C99.0634 123.48 97.9183 123.838 96.7621 124.132C90.0926 125.842 83.1211 126.158 76.3145 125.06C75.5077 124.932 74.7121 124.785 73.9202 124.616L73.251 124.469C71.2309 124.014 69.2439 123.432 67.3026 122.728C66.1749 122.319 65.0695 121.871 63.9864 121.384C63.5662 121.194 63.1462 121 62.7335 120.799C62.4509 120.663 62.1721 120.524 61.8932 120.384C54.3287 116.555 47.9559 110.856 43.4274 103.873C38.8989 96.889 36.3774 88.8706 36.1212 80.6387C35.865 72.4068 37.8832 64.2572 41.9692 57.0243C46.0552 49.7915 52.0621 43.7352 59.3749 39.4759C66.6876 35.2165 75.0436 32.907 83.5869 32.7839C92.1302 32.6607 100.554 34.7284 107.996 38.7751C115.437 42.8218 121.629 48.7022 125.938 55.8141C130.246 62.926 132.516 71.0138 132.515 79.2494Z" fill="url(#paint0_linear)"/>
<path d="M96.9405 82.6107C100.011 85.6566 108.956 97.5107 108.956 97.5107L103.461 105.276L98.5205 89.8492L96.9405 82.6107Z" fill="url(#paint1_linear)"/>
<path d="M106.335 120.598C105.882 120.828 105.421 121.047 104.956 121.258C104.744 121.358 104.536 121.452 104.32 121.545C102.974 122.14 101.594 122.674 100.179 123.147C99.0634 123.505 97.9183 123.863 96.7621 124.157C90.0926 125.867 83.1211 126.184 76.3145 125.085C75.5077 124.956 74.7121 124.809 73.9202 124.641C71.0204 126.568 68.3436 128.199 66.5702 128.941L66.7152 127.748L67.3175 122.756L68.7116 111.142L74.2362 105.993L61.8152 106.921C61.8152 106.921 63.1202 89.4693 68.2135 85.8787C73.3068 82.2881 78.6492 79.0702 78.6492 79.0702C79.2866 79.4753 79.9886 79.7767 80.7274 79.9625C82.494 80.4332 84.3302 80.6136 86.159 80.4964C88.3376 80.3996 90.5162 78.4466 90.6203 78.3463C90.6203 78.3463 94.0407 79.0021 96.9406 82.6249C98.3868 84.4899 99.4253 86.6185 99.9928 88.8816C100.707 91.5298 101.974 97.7148 103.417 105.186C104.361 109.995 105.354 115.328 106.335 120.598Z" fill="url(#paint2_linear)"/>
<path d="M108.956 97.5249L114.258 103.513L132.902 85.6745L133.608 82.023L137.327 78.9089L135.672 83.657V89.8421C135.672 89.8421 121.292 112.31 117.328 113.468C112.693 114.826 103.469 105.269 103.469 105.269L108.956 97.5249Z" fill="url(#paint3_linear)"/>
<path d="M89.6018 105.713L93.9255 115.747L99.5133 113.432L95.4164 103.613L89.6018 105.713Z" fill="#7E57C2"/>
<path d="M95.6245 112.195C94.9293 112.748 93.8921 112.618 92.6057 112.683C90.8775 112.727 89.2199 113.353 87.9213 114.453C86.1925 115.855 81.3595 119.52 76.5264 122.867C75.649 123.472 74.7716 124.071 73.924 124.658C71.0242 126.587 68.3474 128.217 66.574 128.959C66.1078 129.182 65.6043 129.324 65.0869 129.378C62.6035 129.439 62.0718 124.422 61.9194 120.419C61.8711 119.09 61.8599 117.875 61.8339 116.998C61.7298 113.485 61.8339 106.964 61.8339 106.964L74.2549 106.032L72.9388 114.324L72.7083 115.79V115.801L76.4261 114.475L76.5413 114.435L89.7393 109.708L90.6502 108.193L91.2302 109.626H91.2859L96.9369 108.91C96.9369 108.91 97.0335 111.081 95.6245 112.195Z" fill="url(#paint4_linear)"/>
<path d="M92.7729 59.8988C92.4494 59.0459 92.1707 58.4654 92.0888 58.2934V58.2504C92.0888 58.2504 91.8026 58.9313 89.6463 58.7665C87.49 58.6016 86.7762 57.5695 86.7762 57.5695C86.7762 57.5695 87.4528 59.8056 84.8838 60.7624C82.4115 61.6869 81.4375 61.0885 81.3706 61.0455C81.5007 61.1817 83.4339 63.1741 82.1513 64.7544C80.8241 66.392 77.8387 66.0695 77.8387 66.0695V66.091C78.2144 66.9111 78.6351 67.7113 79.0991 68.4883C79.3444 68.8968 79.5861 69.2731 79.8426 69.6243V69.6494C80.501 70.6818 81.3901 71.5595 82.445 72.2187C81.9813 74.8411 80.6497 77.2484 78.6492 79.081C79.3221 79.4195 80.0162 79.7175 80.7274 79.9733C82.1141 80.4785 83.9768 80.9802 85.6385 80.8405C87.5641 80.642 89.3435 79.7577 90.6278 78.3607L89.7764 75.2108L89.0105 72.3728C95.933 70.6706 94.0295 63.2672 92.7729 59.8988ZM88.6239 72.4767L88.7466 72.448L88.9436 72.3943C88.6569 72.5138 88.354 72.5935 88.0439 72.6308C88.2038 72.5914 88.3674 72.5484 88.5384 72.4982L88.6239 72.4767Z" fill="url(#paint5_linear)"/>
<path d="M96.9404 58.1572C94.0852 60.6872 92.8509 59.974 92.7728 59.9059V59.8988C92.4494 59.0459 92.1705 58.4654 92.0925 58.2934L92.0739 58.2504C92.0739 58.2504 91.7839 58.9312 89.6276 58.7664C87.4713 58.6015 86.7612 57.5695 86.7612 57.5695C86.7612 57.5695 87.4378 59.8056 84.8689 60.7624C82.3928 61.6869 81.4188 61.0885 81.3556 61.0455C81.4858 61.1781 83.419 63.1705 82.1363 64.7508C80.8091 66.3884 77.8238 66.0695 77.8238 66.0695V66.0874C78.1993 66.9087 78.62 67.7102 79.0841 68.4883C79.3319 68.8944 79.5798 69.2731 79.8276 69.6242V69.6493C79.8276 69.6493 78.8089 71.5809 76.991 71.5414C75.173 71.502 75.1321 69.7497 75.1321 69.7497C75.1321 69.7497 73.8458 71.9858 69.8715 69.8321C65.8972 67.6785 68.5479 64.5572 68.5479 64.5572C68.5479 64.5572 65.7299 62.4789 65.7299 59.3649C65.7299 56.2509 70.1168 53.8822 70.1168 53.8822C70.1168 53.8822 68.5479 50.2665 71.195 48.2741C73.842 46.2817 77.82 47.6326 77.82 47.6326C77.82 47.6326 77.742 43.0064 81.7943 43.0817C85.8467 43.1569 86.7649 45.5471 86.7649 45.5471C86.7649 45.5471 90.4083 42.8309 94.0145 45.3894C97.6208 47.948 96.1374 52.4094 96.1374 52.4094C96.1374 52.4094 99.9184 55.5234 96.9404 58.1572Z" fill="url(#paint6_linear)"/>
<path opacity="0.15" d="M89.8062 75.2001C88.0775 74.6733 85.0029 72.663 85.0029 72.663C86.2163 72.7865 87.4423 72.7237 88.6352 72.4766L88.7579 72.448L88.9958 72.3798H89.0292L89.8062 75.2001Z" fill="black"/>
<path opacity="0.15" d="M75.9129 95.2745L74.2362 106.025L72.9201 114.317L69.8566 116.772L76.5225 114.438C76.5225 114.438 74.7938 109.68 75.9129 95.2745Z" fill="black"/>
<path opacity="0.15" d="M73.9128 124.641C74.7046 124.809 75.5002 124.956 76.307 125.085C76.3479 124.351 76.4222 123.608 76.5263 122.867L73.9128 124.641Z" fill="black"/>
</g>
<defs>
<filter id="filter0_d" x="29.8775" y="0.795616" width="59.8127" height="58.7356" filterUnits="userSpaceOnUse" color-interpolation-filters="sRGB">
<feFlood flood-opacity="0" result="BackgroundImageFix"/>
<feColorMatrix in="SourceAlpha" type="matrix" values="0 0 0 0 0 0 0 0 0 0 0 0 0 0 0 0 0 0 127 0"/>
<feOffset dx="5" dy="5"/>
<feGaussianBlur stdDeviation="7.5"/>
<feColorMatrix type="matrix" values="0 0 0 0 0 0 0 0 0 0 0 0 0 0 0 0 0 0 0.15 0"/>
<feBlend mode="normal" in2="BackgroundImageFix" result="effect1_dropShadow"/>
<feBlend mode="normal" in="SourceGraphic" in2="effect1_dropShadow" result="shape"/>
</filter>
<filter id="filter1_d" x="132.684" y="68.624" width="59.8131" height="58.736" filterUnits="userSpaceOnUse" color-interpolation-filters="sRGB">
<feFlood flood-opacity="0" result="BackgroundImageFix"/>
<feColorMatrix in="SourceAlpha" type="matrix" values="0 0 0 0 0 0 0 0 0 0 0 0 0 0 0 0 0 0 127 0"/>
<feOffset dx="5" dy="5"/>
<feGaussianBlur stdDeviation="7.5"/>
<feColorMatrix type="matrix" values="0 0 0 0 0 0 0 0 0 0 0 0 0 0 0 0 0 0 0.15 0"/>
<feBlend mode="normal" in2="BackgroundImageFix" result="effect1_dropShadow"/>
<feBlend mode="normal" in="SourceGraphic" in2="effect1_dropShadow" result="shape"/>
</filter>
<filter id="filter2_d" x="0.0646973" y="68.624" width="59.8127" height="58.736" filterUnits="userSpaceOnUse" color-interpolation-filters="sRGB">
<feFlood flood-opacity="0" result="BackgroundImageFix"/>
<feColorMatrix in="SourceAlpha" type="matrix" values="0 0 0 0 0 0 0 0 0 0 0 0 0 0 0 0 0 0 127 0"/>
<feOffset dx="5" dy="5"/>
<feGaussianBlur stdDeviation="7.5"/>
<feColorMatrix type="matrix" values="0 0 0 0 0 0 0 0 0 0 0 0 0 0 0 0 0 0 0.15 0"/>
<feBlend mode="normal" in2="BackgroundImageFix" result="effect1_dropShadow"/>
<feBlend mode="normal" in="SourceGraphic" in2="effect1_dropShadow" result="shape"/>
</filter>
<filter id="filter3_d" x="100.073" y="0.795616" width="59.8123" height="58.7356" filterUnits="userSpaceOnUse" color-interpolation-filters="sRGB">
<feFlood flood-opacity="0" result="BackgroundImageFix"/>
<feColorMatrix in="SourceAlpha" type="matrix" values="0 0 0 0 0 0 0 0 0 0 0 0 0 0 0 0 0 0 127 0"/>
<feOffset dx="5" dy="5"/>
<feGaussianBlur stdDeviation="7.5"/>
<feColorMatrix type="matrix" values="0 0 0 0 0 0 0 0 0 0 0 0 0 0 0 0 0 0 0.15 0"/>
<feBlend mode="normal" in2="BackgroundImageFix" result="effect1_dropShadow"/>
<feBlend mode="normal" in="SourceGraphic" in2="effect1_dropShadow" result="shape"/>
</filter>
<linearGradient id="paint0_linear" x1="84.5055" y1="37.8244" x2="82.9736" y2="129.408" gradientUnits="userSpaceOnUse">
<stop stop-color="white" stop-opacity="0"/>
<stop offset="1" stop-color="#64B5F6" stop-opacity="0.6"/>
</linearGradient>
<linearGradient id="paint1_linear" x1="93.3008" y1="79.5325" x2="105.867" y2="102.441" gradientUnits="userSpaceOnUse">
<stop stop-color="#E57373"/>
<stop offset="1" stop-color="#AD1457"/>
</linearGradient>
<linearGradient id="paint2_linear" x1="20389.7" y1="27972.7" x2="19081.6" y2="34670.6" gradientUnits="userSpaceOnUse">
<stop stop-color="#E57373"/>
<stop offset="1" stop-color="#AD1457"/>
</linearGradient>
<linearGradient id="paint3_linear" x1="142.372" y1="87.8138" x2="107.028" y2="109.056" gradientUnits="userSpaceOnUse">
<stop stop-color="#FFF8E1"/>
<stop offset="1" stop-color="#FFCC80"/>
</linearGradient>
<linearGradient id="paint4_linear" x1="15687.3" y1="15682" x2="13788.8" y2="14353.8" gradientUnits="userSpaceOnUse">
<stop stop-color="#FFF8E1"/>
<stop offset="1" stop-color="#FFCC80"/>
</linearGradient>
<linearGradient id="paint5_linear" x1="96.4126" y1="63.548" x2="76.9911" y2="71.8459" gradientUnits="userSpaceOnUse">
<stop stop-color="#FFF8E1"/>
<stop offset="1" stop-color="#FFCC80"/>
</linearGradient>
<linearGradient id="paint6_linear" x1="91.9066" y1="42.9455" x2="70.0041" y2="73.6489" gradientUnits="userSpaceOnUse">
<stop stop-color="#FFB74D"/>
<stop offset="1" stop-color="#F4511E"/>
</linearGradient>
<clipPath id="clip0">
<rect width="101.538" height="97.6923" fill="white" transform="translate(35.8462 32.2308)"/>
</clipPath>
</defs>
</svg>
